<?xml version="1.0" encoding="UTF-8" standalone="no"?>
<!-- Created with Inkscape (http://www.inkscape.org/) -->

<svg
   width="512"
   height="512"
   viewBox="0 0 512 512"
   version="1.1"
   id="svg1"
   xml:space="preserve"
   inkscape:version="1.3.2 (091e20e, 2023-11-25, custom)"
   sodipodi:docname="logoV1.svg"
   inkscape:export-filename="logoV6.png"
   inkscape:export-xdpi="96"
   inkscape:export-ydpi="96"
   xmlns:inkscape="http://www.inkscape.org/namespaces/inkscape"
   xmlns:sodipodi="http://sodipodi.sourceforge.net/DTD/sodipodi-0.dtd"
   xmlns="http://www.w3.org/2000/svg"
   xmlns:svg="http://www.w3.org/2000/svg"><sodipodi:namedview
     id="namedview1"
     pagecolor="#505050"
     bordercolor="#ffffff"
     borderopacity="1"
     inkscape:showpageshadow="0"
     inkscape:pageopacity="0"
     inkscape:pagecheckerboard="1"
     inkscape:deskcolor="#505050"
     inkscape:document-units="px"
     inkscape:zoom="0.81738284"
     inkscape:cx="263.03464"
     inkscape:cy="338.27478"
     inkscape:window-width="1920"
     inkscape:window-height="1051"
     inkscape:window-x="-9"
     inkscape:window-y="-9"
     inkscape:window-maximized="1"
     inkscape:current-layer="layer1" /><defs
     id="defs1" /><g
     inkscape:label="Katman 1"
     inkscape:groupmode="layer"
     id="layer1"><rect
       style="opacity:1;fill:#ffffff;fill-opacity:1;stroke-width:6.16;paint-order:stroke markers fill"
       id="rect1"
       width="512"
       height="512"
       x="0"
       y="0"
       ry="114.60548"
       inkscape:label="rect1" /><path
       style="fill:#000000;stroke-width:6.16;paint-order:stroke markers fill;fill-opacity:1"
       d="m 313.80644,184.16248 6.27001,12.1577 c 0,0 2.98208,5.42892 5.8877,8.86978 2.90561,3.44086 10.17599,12.64961 8.39175,20.70573 -1.78425,8.05611 -0.37848,5.62306 0,7.46137 0.37847,1.83831 -0.32441,4.10916 -1.89238,3.56848 -1.56797,-0.54068 -3.56848,-2.16272 -5.08238,1.62204 -1.51391,3.78475 -5.08239,10.54324 -3.29815,23.78987 1.78424,13.24664 3.78476,26.1148 3.56849,32.38667 -0.21628,6.27188 0.3244,15.89597 -4.2173,23.087 -4.5417,7.19103 -12.21935,17.08545 -15.51749,19.62665 -3.29814,2.54119 -5.67713,5.40679 -5.67713,5.40679 0,0 -1.02729,0.1622 -0.37847,2.97373 0.64881,2.81153 2.81153,13.89545 0,18.38309 -2.81153,4.48763 -4.27137,6.75848 -4.27137,6.75848 l -8.38052,8.21832 -5.7312,12.40859 c 0,0 -1.40394,19.78717 -18.30238,19.48132 -16.89845,-0.30586 -15.75149,-0.38232 -15.75149,-0.38232 l 0.0765,-4.74074 16.05735,0.0765 c 0,0 7.79928,-1.60573 8.64038,-3.89964 0.8411,-2.29391 0.38232,-2.59976 -1.22342,-1.6822 -1.60573,0.91756 -6.4994,2.59976 -9.40502,2.75269 -2.90561,0.15293 -13.68697,0.30585 -13.68697,0.30585 v -4.8172 l 16.05734,-0.22939 c 0,0 7.03465,-1.07049 10.01673,-5.27599 2.98208,-4.20549 6.11708,-10.70489 6.11708,-10.70489 0,0 0.68818,-3.74672 4.35843,-7.34051 3.67025,-3.59378 8.64038,-8.7933 9.55794,-11.39307 0.91756,-2.59976 3.97611,-9.71087 0.68817,-17.89247 -3.28793,-8.1816 -4.74074,-10.7049 -4.74074,-10.7049 0,0 -2.44683,-3.135 -0.91756,-6.65233 1.52927,-3.51732 2.82915,-4.43488 0.22939,-7.95221 -2.59976,-3.51732 -8.1816,-13.22819 -18.0454,-17.05137 -9.8638,-3.82318 -13.30466,-5.27598 -19.88052,-4.97013 -6.57587,0.30585 -4.81721,-2.06452 -4.81721,-2.06452 l 1.75866,-3.135 c 0,0 9.40502,-0.91757 15.44564,1.14695 6.04062,2.06452 13.15174,4.51135 18.50418,10.01673 5.35245,5.50537 10.47551,11.85185 10.47551,11.85185 l 4.28196,6.34647 c 0,0 0.53525,0.38232 -0.22939,1.60574 -0.76464,1.22342 -2.59976,5.04659 -2.14098,6.80526 0.45878,1.75866 1.60574,4.35842 1.60574,4.35842 0,0 -0.38232,3.82318 3.28793,0.38232 3.67025,-3.44086 13.99283,-13.68698 16.3632,-18.8865 2.37037,-5.19952 4.51135,-11.16368 4.43489,-16.5926 -0.0765,-5.42891 0,-10.62843 -0.91757,-18.50418 -0.91756,-7.87574 -2.75268,-26.99163 -2.75268,-26.99163 0,0 -0.2294,-5.65831 1.07049,-10.01673 1.29988,-4.35842 3.28793,-9.17562 3.28793,-9.17562 0,0 2.59976,-2.82916 -1.91159,-3.44087 -4.51135,-0.6117 -6.72879,-0.38231 -6.72879,-0.38231 0,0 -2.90562,0.68817 0,1.60573 2.90561,0.91756 5.50537,1.45281 5.19952,3.21147 -0.30586,1.75866 -1.75866,1.52927 -2.14098,3.59379 -0.38232,2.06451 -0.99403,4.20549 -2.90562,5.96416 -1.91159,1.75866 -6.57586,3.74671 -9.78733,2.59976 -3.21147,-1.14696 -5.0466,-0.91757 -5.58184,1.37634 -0.53525,2.29391 -1.91159,5.6583 -3.74672,4.89367 -1.83512,-0.76464 -3.21147,-0.68817 -1.75866,-5.42891 1.45281,-4.74074 0.68817,-9.48149 5.27599,-14.52808 4.58781,-5.04659 8.41099,-8.86977 15.44564,-8.71685 7.03464,0.15293 10.93428,2.06452 10.93428,2.06452 0,0 3.51733,2.82915 3.67026,-2.14098 0.15292,-4.97013 1.68219,-5.88769 -6.65233,-16.66905 -8.33453,-10.78137 -13.61052,-23.47432 -13.61052,-23.47432 l -5.88769,-8.33452 c 0,0 -0.61171,-1.60574 0.45878,-2.5233 1.07049,-0.91756 1.91159,-1.14696 3.05854,-0.8411 1.14696,0.30585 2.37037,2.44683 2.37037,2.44683 z"
       id="path1" /><path
       style="fill:#000000;fill-opacity:1;stroke-width:6.16;paint-order:stroke markers fill"
       d="m 194.18409,184.16232 -6.26997,12.1577 c 0,0 -2.98206,5.42892 -5.88766,8.86978 -2.9056,3.44086 -10.17594,12.64961 -8.39171,20.70573 1.78424,8.05611 0.37846,5.62306 0,7.46137 -0.37846,1.83831 0.32442,4.10916 1.89237,3.56848 1.56796,-0.54068 3.56847,-2.16272 5.08236,1.62204 1.5139,3.78475 5.08236,10.54324 3.29813,23.78987 -1.78423,13.24664 -3.78474,26.1148 -3.56847,32.38667 0.2163,6.27188 -0.32442,15.89597 4.21728,23.087 4.54167,7.19103 12.21926,17.08545 15.51741,19.62665 3.29809,2.54119 5.67706,5.40679 5.67706,5.40679 0,0 1.0273,0.1622 0.37846,2.97373 -0.64884,2.81153 -2.81152,13.89545 0,18.38309 2.81151,4.48763 4.27131,6.75848 4.27131,6.75848 l 8.3805,8.21832 5.73116,12.40859 c 0,0 1.40391,19.78717 18.30228,19.48132 16.89836,-0.30586 15.75137,-0.38232 15.75137,-0.38232 l -0.0762,-4.74074 -16.05725,0.0765 c 0,0 -7.79926,-1.60573 -8.64033,-3.89964 -0.84112,-2.29391 -0.38213,-2.59976 1.22342,-1.6822 1.60571,0.91756 6.49937,2.59976 9.40497,2.75269 2.90555,0.15293 13.68684,0.30585 13.68684,0.30585 v -4.8172 l -16.05724,-0.22939 c 0,0 -7.03457,-1.07049 -10.01665,-5.27599 -2.98209,-4.20549 -6.11708,-10.70489 -6.11708,-10.70489 0,0 -0.68816,-3.74672 -4.3584,-7.34051 -3.67019,-3.59378 -8.64033,-8.7933 -9.55788,-11.39307 -0.91755,-2.59976 -3.97606,-9.71087 -0.68816,-17.89247 3.2879,-8.1816 4.7407,-10.7049 4.7407,-10.7049 0,0 2.44683,-3.135 0.9176,-6.65233 -1.52928,-3.51732 -2.82918,-4.43488 -0.22918,-7.95221 2.59974,-3.51732 8.18156,-13.22819 18.0453,-17.05137 9.86375,-3.82318 13.30455,-5.27598 19.8804,-4.97013 6.57584,0.30585 4.81718,-2.06452 4.81718,-2.06452 l -1.75867,-3.135 c 0,0 -9.40497,-0.91757 -15.44557,1.14695 -6.04054,2.06452 -13.15164,4.51135 -18.50407,10.01673 -5.35238,5.50537 -10.47542,11.85185 -10.47542,11.85185 l -4.28193,6.34647 c 0,0 -0.53525,0.38232 0.22918,1.60574 0.76464,1.22342 2.59973,5.04659 2.14096,6.80526 -0.45888,1.75866 -1.60576,4.35842 -1.60576,4.35842 0,0 0.38214,3.82318 -3.2879,0.38232 -3.67024,-3.44086 -13.99276,-13.68698 -16.3631,-18.8865 -2.37035,-5.19952 -4.51132,-11.16368 -4.43486,-16.5926 0.0765,-5.42891 0,-10.62843 0.91756,-18.50418 0.91756,-7.87574 2.75267,-26.99163 2.75267,-26.99163 0,0 0.22938,-5.65831 -1.07049,-10.01673 -1.29987,-4.35842 -3.28791,-9.17562 -3.28791,-9.17562 0,0 -2.59974,-2.82916 1.91158,-3.44087 4.51134,-0.6117 6.72878,-0.38231 6.72878,-0.38231 0,0 2.9056,0.68817 0,1.60573 -2.90562,0.91756 -5.50537,1.45281 -5.19952,3.21147 0.30587,1.75866 1.75865,1.52927 2.14097,3.59379 0.3823,2.06451 0.99401,4.20549 2.90559,5.96416 1.91157,1.75866 6.57585,3.74671 9.78726,2.59976 3.21147,-1.14696 5.04662,-0.91757 5.58182,1.37634 0.53526,2.29391 1.91158,5.6583 3.74673,4.89367 1.83509,-0.76464 3.21141,-0.68817 1.75861,-5.42891 -1.4528,-4.74074 -0.68816,-9.48149 -5.27595,-14.52808 -4.58779,-5.04659 -8.41094,-8.86977 -15.44551,-8.71685 -7.03463,0.15293 -10.93425,2.06452 -10.93425,2.06452 0,0 -3.51731,2.82915 -3.67024,-2.14098 -0.1529,-4.97013 -1.68217,-5.88769 6.6523,-16.66905 8.33448,-10.78137 13.61043,-23.47432 13.61043,-23.47432 l 5.88769,-8.33452 c 0,0 0.61168,-1.60574 -0.45888,-2.5233 -1.07045,-0.91756 -1.91157,-1.14696 -3.05851,-0.8411 -1.14693,0.30585 -2.37035,2.44683 -2.37035,2.44683 z"
       id="path1-1" /><path
       style="fill:#000000;fill-opacity:1;stroke-width:6.16;paint-order:stroke markers fill"
       d="m 290.75268,156.32974 6.46117,6.23178 c 0,0 1.10872,2.14098 -0.45878,3.17324 -1.56751,1.03226 -2.90562,1.07049 -4.74074,-1.03226 -1.83513,-2.10274 -6.15532,-6.11708 -10.16966,-8.21983 -4.01433,-2.10275 -13.99283,-6.23178 -13.99283,-6.23178 0,0 -1.33811,-2.06451 -3.59378,0.64994 -2.25568,2.71446 -7.49343,10.66667 -7.49343,10.66667 0,0 -2.59976,3.9761 -4.62605,0.53524 -2.02628,-3.44086 -8.908,-11.85185 -8.908,-11.85185 0,0 -0.68817,-1.33811 -4.12903,0.1147 -3.44086,1.4528 -10.47551,3.51732 -15.98089,8.10513 -5.50537,4.58782 -8.64038,7.95221 -8.64038,7.95221 0,0 -4.97013,0.45878 -3.67025,-2.90561 1.29988,-3.3644 13.38112,-12.2724 16.74552,-13.87814 3.36439,-1.60573 8.02867,-3.2497 8.02867,-3.2497 0,0 3.51733,-1.07049 0.49701,-2.98208 -3.02031,-1.91159 -6.46117,-4.62604 -11.01075,-5.54361 -4.54958,-0.91756 -3.28793,-4.47311 -1.45281,-4.51135 1.83513,-0.0382 10.51374,0.1147 10.51374,0.1147 0,0 4.77898,0.1147 1.37635,-2.37037 -3.40263,-2.48507 -8.56392,-5.50538 -8.56392,-5.50538 0,0 -1.49104,-4.39665 2.82915,-3.47909 4.32019,0.91756 9.78734,2.86739 9.78734,2.86739 0,0 3.51732,0.34408 1.49104,-1.83513 -2.02629,-2.17921 -5.96416,-6.30824 -5.96416,-6.30824 0,0 -0.99403,-5.35245 3.47909,-2.75269 4.47312,2.59976 9.48148,6.57586 9.48148,6.57586 0,0 1.03226,2.82916 2.94385,-0.7264 1.91159,-3.55556 5.12306,-7.30227 5.12306,-7.30227 0,0 3.70848,-2.82915 3.82317,1.52927 0.1147,4.35842 -0.0765,9.09917 -0.0765,9.09917 0,0 -0.34408,2.63799 2.48507,1.07048 2.82915,-1.5675 9.8638,-3.05854 9.8638,-3.05854 0,0 5.16129,0.45878 2.98207,3.78495 -2.17921,3.32616 -4.20549,6.69056 -4.20549,6.69056 0,0 -1.07049,2.06452 1.72043,1.87336 2.79092,-0.19116 6.4994,0.22939 6.4994,0.22939 0,0 4.51135,2.75269 0.0382,5.00836 -4.47312,2.25568 -7.45519,4.54958 -7.45519,4.54958 l -1.23395,1.22423 -4.32543,-3.08187 2.37899,-2.10865 c 0,0 1.78424,-2.10864 -0.91916,-1.73017 -2.70339,0.37848 -5.83933,-0.64881 -4.3795,-2.59526 1.45984,-1.94644 4.70391,-6.59628 4.70391,-6.59628 0,0 1.1895,-3.24408 -1.78424,-1.29763 -2.97373,1.94644 -7.29917,6.38001 -7.29917,6.38001 0,0 -3.73068,2.10865 -3.89288,-0.43254 -0.16221,-2.54119 0.59474,-8.05612 0.59474,-8.05612 0,0 -0.70288,-5.13645 -2.00051,-0.43254 -1.29763,4.70391 -1.89238,6.32594 -1.89238,6.32594 0,0 -1.94644,2.00051 -2.64932,0.27034 -0.70289,-1.73017 -1.73018,-2.37899 -2.05458,-1.45983 -0.32441,0.91915 -0.43255,2.27085 -1.83831,1.29763 -1.40577,-0.97322 -4.64984,-1.1895 -2.81153,0.91915 1.83831,2.10865 3.08459,4.73287 3.08459,4.73287 0,0 -0.13057,3.93655 -2.50953,2.63892 -2.37899,-1.29763 -6.79287,-2.99229 -3.44066,0.25175 3.35221,3.24407 11.67866,11.13798 12.86816,13.67918 1.18949,2.54119 1.83831,2.97373 2.97373,0.91915 1.13543,-2.05458 9.02934,-11.40833 9.02934,-11.40833 l 2.91967,-2.16271 4.5417,2.81153 c 0,0 -2.32492,1.18949 -0.10813,2.27085 2.21678,1.08136 13.78731,6.92069 13.78731,6.92069 z"
       id="path2"
       sodipodi:nodetypes="ccssscscscsscsscssscscscscscscscscscscsccccsscscscscsssscsssscccscc" /><path
       style="fill:#000000;fill-opacity:1;stroke-width:6.16;paint-order:stroke markers fill"
       d="m 314.1123,186.41815 c 0,0 -1.52928,-1.83512 1.68219,-5.81123 3.21147,-3.9761 18.96297,-18.0454 18.96297,-18.0454 0,0 12.08124,-12.54002 15.90442,-19.42174 3.82317,-6.88172 9.6344,-18.50418 11.01075,-27.67981 1.37634,-9.17562 2.75269,-25.080045 1.98805,-31.961765 -0.76464,-6.88172 -2.59976,-25.232974 -5.35245,-31.961767 -2.75269,-6.728793 -5.81123,-16.210274 -14.83393,-7.95221 -9.0227,8.258064 -24.62126,32.573475 -24.62126,32.573475 0,0 -7.18758,10.399044 -12.54003,25.080047 -5.35245,14.681 -13.91637,42.81959 -17.58662,46.7957 -3.67025,3.9761 -3.21147,6.57586 -3.21147,6.57586 l 4.58782,3.05855 3.51732,-8.411 c 0,0 6.72879,-11.01075 9.94026,-22.0215 3.21147,-11.01075 8.411,-29.209079 13.91637,-37.925925 5.50538,-8.716845 18.50418,-29.514933 23.7037,-34.255673 5.19953,-4.740741 7.64636,-12.081243 9.78734,-5.505377 2.14098,6.575866 6.11708,11.928315 6.42294,27.221027 0.30585,15.292712 2.90561,12.692951 -0.91756,33.338108 -3.82318,20.64516 -8.86978,28.90323 -14.22223,35.63202 -5.35244,6.72879 -33.79689,33.79689 -33.79689,33.79689 z"
       id="path3" /><path
       style="fill:#000000;fill-opacity:1;stroke-width:6.16;paint-order:stroke markers fill"
       d="m 193.91506,186.4185 c 0,0 1.52927,-1.83512 -1.68219,-5.81123 -3.21147,-3.9761 -18.96294,-18.0454 -18.96294,-18.0454 0,0 -12.08122,-12.54002 -15.9044,-19.42174 -3.82316,-6.88172 -9.63438,-18.50418 -11.01073,-27.67981 -1.37634,-9.17562 -2.75269,-25.080043 -1.98805,-31.961763 0.76464,-6.88172 2.59976,-25.232974 5.35244,-31.961767 2.75269,-6.728793 5.81122,-16.210274 14.83391,-7.95221 9.02269,8.258064 24.62122,32.573475 24.62122,32.573475 0,0 7.18757,10.399044 12.54001,25.080045 5.35245,14.681 13.91635,42.81959 17.5866,46.7957 3.67024,3.9761 3.21146,6.57586 3.21146,6.57586 l -4.58781,3.05855 -3.51731,-8.411 c 0,0 -6.72878,-11.01075 -9.94025,-22.0215 -3.21146,-11.01075 -8.41099,-29.209077 -13.91635,-37.925923 -5.50537,-8.716845 -18.50415,-29.514933 -23.70366,-34.255673 -5.19952,-4.740741 -7.64635,-12.081243 -9.78733,-5.505377 -2.14098,6.575866 -6.11707,11.928315 -6.42293,27.221027 -0.30585,15.292712 -2.9056,12.692951 0.91756,33.338106 3.82317,20.64516 8.86977,28.90323 14.22221,35.63202 5.35243,6.72879 33.79684,33.79689 33.79684,33.79689 z"
       id="path4" /><path
       style="fill:#000000;fill-opacity:1;stroke-width:6.16;paint-order:stroke markers fill"
       d="m 281.09901,341.06031 c 0,0 4.70391,2.97374 2.37899,7.0829 -2.32492,4.10916 -6.92069,11.73273 -8.5968,12.81409 -1.6761,1.08136 -1.13542,6.21781 -1.13542,6.21781 0,0 1.83831,4.32543 5.02831,3.29814 3.19001,-1.02729 5.7312,-2.81153 7.62358,-4.64984 1.89237,-1.83831 5.94747,-6.32594 5.8934,-9.67815 -0.0541,-3.35221 -0.27034,-8.38053 -2.21679,-11.67867 -1.94644,-3.29814 -5.29865,-6.81255 -5.29865,-6.81255 0,0 -4.2173,-1.29763 -3.89289,2.32492 0.32441,3.62255 2.10865,-1.89238 2.10865,-1.89238 z"
       id="path5" /><path
       style="fill:#000000;fill-opacity:1;stroke-width:6.16;paint-order:stroke markers fill"
       d="m 227.0322,341.06034 c 0,0 -4.70391,2.97374 -2.37898,7.0829 2.32492,4.10916 6.9207,11.73273 8.59681,12.81409 1.67609,1.08136 1.13542,6.21781 1.13542,6.21781 0,0 -1.83831,4.32543 -5.02831,3.29814 -3.19002,-1.02729 -5.73122,-2.81153 -7.62359,-4.64984 -1.89238,-1.83831 -5.94748,-6.32594 -5.89342,-9.67815 0.0542,-3.35221 0.27035,-8.38053 2.2168,-11.67867 1.94644,-3.29814 5.29866,-6.81255 5.29866,-6.81255 0,0 4.2173,-1.29763 3.89289,2.32492 -0.32441,3.62255 -2.10865,-1.89238 -2.10865,-1.89238 z"
       id="path6" /><path
       style="fill:#000000;fill-opacity:1;stroke-width:6.16;paint-order:stroke markers fill"
       d="m 346.35897,106.51376 c 0,0 -0.64882,15.46342 -3.89289,23.78988 -3.24407,8.32646 -9.19154,20.97834 -17.08546,26.70954 -7.89391,5.7312 -18.16681,10.81358 -18.16681,10.81358 0,0 -4.97425,1.94645 -4.43357,-2.59526 0.54068,-4.5417 5.7312,-39.03702 5.7312,-39.03702 0,0 1.94644,-16.22037 7.02883,-25.84446 5.08238,-9.624083 17.518,-27.358355 22.27597,-33.305824 4.75798,-5.947469 6.38001,-8.650864 6.38001,-8.650864 l 1.94645,-2.270852 c 0,0 7.46137,-0.865086 3.46034,4.325432 -4.00102,5.190519 -14.8146,19.140037 -14.8146,19.140037 0,0 -7.78578,9.191543 -13.08443,20.329531 -5.29866,11.13799 -7.35324,24.11428 -8.4346,31.57565 -1.08135,7.46137 -4.32543,27.25022 -4.32543,27.25022 0,0 -1.08136,3.02781 2.16272,1.1895 3.24407,-1.83831 11.46239,-5.51493 16.97732,-13.73325 5.51492,-8.21832 11.35426,-18.05868 12.32748,-30.16989 0.97322,-12.11121 1.40577,-10.81358 1.40577,-10.81358 0,0 3.67661,-2.59526 4.5417,1.29763 z"
       id="path7" /><path
       style="fill:#000000;fill-opacity:1;stroke-width:6.16;paint-order:stroke markers fill"
       d="m 162.212,106.51376 c 0,0 0.64882,15.46342 3.89286,23.78988 3.24405,8.32646 9.19148,20.97834 17.08534,26.70954 7.89385,5.7312 18.16667,10.81358 18.16667,10.81358 0,0 4.97421,1.94645 4.43354,-2.59526 -0.54068,-4.5417 -5.73116,-39.03702 -5.73116,-39.03702 0,0 -1.94642,-16.22037 -7.02877,-25.84446 -5.08235,-9.624085 -17.51787,-27.358355 -22.27581,-33.305824 -4.75795,-5.947469 -6.37996,-8.650864 -6.37996,-8.650864 l -1.94644,-2.270852 c 0,0 -7.46132,-0.865086 -3.46031,4.325432 4.00099,5.190519 14.81448,19.140037 14.81448,19.140037 0,0 7.78573,9.191543 13.08434,20.329536 5.29862,11.137985 7.35319,24.114275 8.43453,31.575645 1.08134,7.46137 4.3254,27.25022 4.3254,27.25022 0,0 1.08136,3.02781 -2.1627,1.1895 -3.24404,-1.83831 -11.46231,-5.51493 -16.97719,-13.73325 -5.51489,-8.21832 -11.35418,-18.05868 -12.32739,-30.16989 -0.97322,-12.11121 -1.40576,-10.81358 -1.40576,-10.81358 0,0 -3.67658,-2.59526 -4.54167,1.29763 z"
       id="path8" /><path
       style="fill:#000000;fill-opacity:1;stroke-width:6.16;paint-order:stroke markers fill"
       d="m 187.07493,373.06851 -21.41088,17.95054 0.21627,16.65292 c 0,0 -7.78578,27.89903 -8.43459,33.08955 -0.64882,5.19052 -1.94645,14.92274 -1.94645,14.92274 0,0 -0.21627,3.67662 5.19052,3.67662 5.40679,0 47.57975,1.94644 47.57975,1.94644 l 48.22857,4.32544 56.44689,7.35323 5.83933,0.86509 c 0,0 3.89289,0.21627 4.32543,-2.37899 0.43254,-2.59526 1.94645,-13.40884 1.94645,-13.40884 0,0 1.5139,-2.37899 3.67661,-2.16272 2.16272,0.21628 2.59526,-3.24407 2.59526,-4.5417 0,-1.29763 -0.21627,-9.51595 -0.21627,-9.51595 0,0 0.64882,-6.70442 1.94645,-9.94849 1.29762,-3.24408 8.43459,-21.41089 8.43459,-21.41089 l 9.51595,-14.4902 c 0,0 5.19052,-5.19052 0.43254,-6.92069 -4.75797,-1.73017 -16.43664,-3.67662 -16.43664,-3.67662 0,0 -4.5417,0 -4.10916,-5.19052 0.43254,-5.19051 1.5139,-6.48814 -4.5417,-6.70442 -6.05561,-0.21627 -32.0082,-0.64881 -32.0082,-0.64881 l -5.40679,5.40679 12.97629,0.21627 21.19462,0.21627 c 0,0 2.81153,-0.64881 2.81153,6.05561 0,6.70442 7.78578,5.83933 7.78578,5.83933 l 10.59731,2.59526 c 0,0 1.73017,0.64881 -0.86509,4.10916 -2.59526,3.46035 -10.16476,19.68072 -10.16476,19.68072 0,0 -1.94645,4.75797 -2.16272,-1.51391 -0.21627,-6.27187 0.43254,-26.38513 0.43254,-26.38513 l -5.62306,-3.24407 v 61.6374 c 0,0 1.5139,3.67662 -4.97424,3.24408 -6.48815,-0.43255 -3.67662,3.0278 -3.67662,3.0278 l 2.59526,2.59526 -1.5139,9.73222 c 0,0 -0.64882,2.59526 -5.19052,1.5139 -4.54171,-1.08136 -46.4984,-6.27188 -54.0679,-7.35323 -7.56951,-1.08136 -38.0638,-3.67662 -38.0638,-3.67662 h -12.11121 c 0,0 -8.4346,-1.29763 1.08135,-1.5139 9.51595,-0.21627 110.73106,0.86508 110.73106,0.86508 v -5.19051 l -146.1996,-0.21628 -5.40679,-0.43254 -3.24407,0.21627 v 4.10916 l -2.81153,-0.21627 c 0,0 -1.94645,-0.86508 -1.5139,-3.46034 0.43254,-2.59526 3.24407,-22.05971 3.24407,-22.05971 0,0 1.5139,3.24408 1.5139,5.19052 0,1.94645 -0.43254,17.30173 -0.43254,17.30173 h 8.21832 c 0,0 -2.81153,-1.29763 -2.59526,-5.19052 0.21627,-3.89289 -0.43254,-53.41908 -0.43254,-53.41908 l 18.38308,-14.05766 31.57566,1.08136 -5.62307,-6.70442 z"
       id="path10" /><rect
       style="fill:#000000;fill-opacity:1;stroke-width:6.16;paint-order:stroke markers fill"
       id="rect10"
       width="33.738369"
       height="5"
       x="184.92758"
       y="397.70813"
       ry="2.5" /><rect
       style="fill:#000000;fill-opacity:1;stroke-width:6.16;paint-order:stroke markers fill"
       id="rect11"
       width="131.49313"
       height="5"
       x="184.2634"
       y="417.40414"
       ry="2.5" /><rect
       style="fill:#000000;fill-opacity:1;stroke-width:6.16;paint-order:stroke markers fill"
       id="rect12"
       width="131.493"
       height="5"
       x="184.263"
       y="434.40906"
       ry="2.5" /></g></svg>
